<mxfile host="app.diagrams.net" agent="Mozilla/5.0 (Macintosh; Intel Mac OS X 10_15_7) AppleWebKit/605.1.15 (KHTML, like Gecko) Version/17.6 Safari/605.1.15" version="24.7.8">
  <diagram name="Page-1" id="GAQdqQaSaiLUtLAq9hmA">
    <mxGraphModel dx="724" dy="483" grid="1" gridSize="10" guides="1" tooltips="1" connect="1" arrows="1" fold="1" page="1" pageScale="1" pageWidth="1654" pageHeight="1169" math="0" shadow="0">
      <root>
        <mxCell id="0" />
        <mxCell id="1" parent="0" />
        <mxCell id="LzNIg7n_GcMWE87P90xB-4" value="" style="edgeStyle=orthogonalEdgeStyle;rounded=0;orthogonalLoop=1;jettySize=auto;html=1;" edge="1" parent="1" source="LzNIg7n_GcMWE87P90xB-1" target="LzNIg7n_GcMWE87P90xB-3">
          <mxGeometry relative="1" as="geometry" />
        </mxCell>
        <mxCell id="LzNIg7n_GcMWE87P90xB-1" value="Item" style="whiteSpace=wrap;html=1;align=center;" vertex="1" parent="1">
          <mxGeometry x="680" y="440" width="100" height="40" as="geometry" />
        </mxCell>
        <mxCell id="LzNIg7n_GcMWE87P90xB-6" value="" style="edgeStyle=orthogonalEdgeStyle;rounded=0;orthogonalLoop=1;jettySize=auto;html=1;" edge="1" parent="1" source="LzNIg7n_GcMWE87P90xB-3" target="LzNIg7n_GcMWE87P90xB-5">
          <mxGeometry relative="1" as="geometry" />
        </mxCell>
        <mxCell id="LzNIg7n_GcMWE87P90xB-8" value="" style="edgeStyle=orthogonalEdgeStyle;rounded=0;orthogonalLoop=1;jettySize=auto;html=1;" edge="1" parent="1" source="LzNIg7n_GcMWE87P90xB-3" target="LzNIg7n_GcMWE87P90xB-7">
          <mxGeometry relative="1" as="geometry" />
        </mxCell>
        <mxCell id="LzNIg7n_GcMWE87P90xB-3" value="Category" style="whiteSpace=wrap;html=1;align=center;" vertex="1" parent="1">
          <mxGeometry x="680" y="560" width="100" height="40" as="geometry" />
        </mxCell>
        <mxCell id="LzNIg7n_GcMWE87P90xB-5" value="Category" style="whiteSpace=wrap;html=1;align=center;" vertex="1" parent="1">
          <mxGeometry x="570" y="710" width="100" height="40" as="geometry" />
        </mxCell>
        <mxCell id="LzNIg7n_GcMWE87P90xB-7" value="Category" style="whiteSpace=wrap;html=1;align=center;" vertex="1" parent="1">
          <mxGeometry x="790" y="710" width="100" height="40" as="geometry" />
        </mxCell>
      </root>
    </mxGraphModel>
  </diagram>
</mxfile>
